<svg xmlns="http://www.w3.org/2000/svg" xmlns:xlink="http://www.w3.org/1999/xlink" width="429.457" height="438.224" viewBox="0 0 429.457 438.224">
  <defs>
    <radialGradient id="radial-gradient" cx="0.329" cy="1.872" r="2.214" gradientTransform="translate(0.035) scale(0.931 1)" gradientUnits="objectBoundingBox">
      <stop offset="0" stop-color="#fff"/>
      <stop offset="0.5" stop-color="#76c39b"/>
      <stop offset="1" stop-color="#00807b"/>
    </radialGradient>
    <radialGradient id="radial-gradient-2" cx="1.702" cy="1.09" r="1.958" gradientTransform="translate(-0.037) scale(1.073 1)" xlink:href="#radial-gradient"/>
    <radialGradient id="radial-gradient-3" cx="2.529" cy="1.364" r="3.201" gradientTransform="translate(-0.361) scale(1.721 1)" xlink:href="#radial-gradient"/>
    <radialGradient id="radial-gradient-4" cx="0.376" cy="-0.918" r="2.015" gradientTransform="translate(-0.251) scale(1.502 1)" xlink:href="#radial-gradient"/>
    <radialGradient id="radial-gradient-5" cx="0.117" cy="3.118" r="3.357" gradientTransform="translate(0.248) scale(0.504 1)" xlink:href="#radial-gradient"/>
    <radialGradient id="radial-gradient-6" cx="0.5" cy="0.5" r="1.264" gradientTransform="translate(0.047) scale(0.905 1)" xlink:href="#radial-gradient"/>
    <radialGradient id="radial-gradient-7" cx="0.927" cy="-0.557" r="2.355" gradientTransform="translate(0.216) scale(0.567 1)" gradientUnits="objectBoundingBox">
      <stop offset="0" stop-color="#fff"/>
      <stop offset="0.5" stop-color="#fbd8b4"/>
      <stop offset="1" stop-color="#ec9641"/>
    </radialGradient>
    <radialGradient id="radial-gradient-8" cx="-0.69" cy="-0.359" r="2.878" gradientTransform="translate(0.08) scale(0.839 1)" xlink:href="#radial-gradient-7"/>
    <radialGradient id="radial-gradient-9" cx="-0.485" cy="0.07" r="2.147" gradientTransform="translate(-0.226) scale(1.452 1)" xlink:href="#radial-gradient-7"/>
    <radialGradient id="radial-gradient-10" cx="0.612" cy="1.553" r="1.476" gradientTransform="translate(-0.422) scale(1.844 1)" xlink:href="#radial-gradient-7"/>
    <radialGradient id="radial-gradient-11" cx="2.104" cy="1.837" r="12.331" gradientTransform="translate(0.411) scale(0.178 1)" xlink:href="#radial-gradient-7"/>
    <radialGradient id="radial-gradient-12" cx="0.419" cy="0.46" r="1.909" gradientTransform="translate(0.247) scale(0.507 1)" xlink:href="#radial-gradient-7"/>
    <radialGradient id="radial-gradient-13" cx="-0.014" cy="0.499" r="1.773" gradientTransform="translate(0.256) scale(0.489 1)" gradientUnits="objectBoundingBox">
      <stop offset="0" stop-color="#fff"/>
      <stop offset="1" stop-color="#fff" stop-opacity="0"/>
    </radialGradient>
    <linearGradient id="linear-gradient" y1="0.5" x2="1" y2="0.5" gradientUnits="objectBoundingBox">
      <stop offset="0" stop-color="#fbd8b4"/>
      <stop offset="0.4" stop-color="#c0cfa9"/>
      <stop offset="0.8" stop-color="#8bc6a0"/>
      <stop offset="1" stop-color="#76c39c"/>
    </linearGradient>
  </defs>
  <g id="Pfad_15" data-name="Pfad 15" transform="translate(0 265.194) rotate(-53)" fill="rgba(255,255,255,0.1)">
    <path d="M 330.3263854980469 286.51416015625 L 1.732265472412109 286.51416015625 L 166.0292663574219 1.999738574028015 L 330.3263854980469 286.51416015625 Z" stroke="none"/>
    <path d="M 166.0292663574219 3.999359130859375 L 3.46441650390625 285.51416015625 L 328.5942077636719 285.51416015625 L 166.0292663574219 3.999359130859375 M 166.0292663574219 0 L 332.0586242675781 287.51416015625 L 0 287.51416015625 L 166.0292663574219 0 Z" stroke="none" fill="#ff69b4"/>
  </g>
  <g id="Layer_1" data-name="Layer 1" transform="translate(157.475 121.494)">
    <path id="Pfad_1" data-name="Pfad 1" d="M312.62,249.54c-1.36-22.17,44.62-32.23,59.72-60.06-22.68,12.87-46.66,13.19-59.68,30.08-5.73,10.17-7.22,20.28,0,30Z" transform="translate(-207.89 -114.03)" stroke="rgba(102,51,153,0.5)" stroke-width="1" fill-rule="evenodd" fill="url(#radial-gradient)"/>
    <path id="Pfad_2" data-name="Pfad 2" d="M312.66,219.56c13-16.89,37-17.21,59.68-30.08,30.85-17.5,16.76-41.39-13.22-52.55,15.32,13.66.07,30.71-17.69,48.91C330.7,196.84,319.05,208.23,312.66,219.56Z" transform="translate(-207.89 -114.03)" stroke="rgba(102,51,153,0.5)" stroke-width="1" fill-rule="evenodd" fill="url(#radial-gradient-2)"/>
    <path id="Pfad_3" data-name="Pfad 3" d="M372.34,189.48c30.85-17.5,16.76-41.39-13.22-52.55,9.22,5.3,15.38,15.08,17.27,26.07C378.2,173.44,376.39,182.1,372.34,189.48Z" transform="translate(-207.89 -114.03)" fill-rule="evenodd" fill="url(#radial-gradient-3)"/>
    <path id="Pfad_4" data-name="Pfad 4" d="M341.43,185.84c17.76-18.2,33-35.25,17.69-48.91-7.76-4.46-17.69-5.75-29.07-2,25.67,4.72,26.37,28.75,11.38,50.88Z" transform="translate(-207.89 -114.03)" fill-rule="evenodd" fill="url(#radial-gradient-4)"/>
    <path id="Pfad_5" data-name="Pfad 5" d="M312.66,219.56c12.44-12.44,30.81-12.75,50.42-18a52.7,52.7,0,0,0,9.26-12.09c-22.68,12.87-46.66,13.19-59.68,30.08Z" transform="translate(-207.89 -114.03)" fill-rule="evenodd" fill="url(#radial-gradient-5)"/>
    <path id="Pfad_6" data-name="Pfad 6" d="M314.14,217.78c13.29-15.16,36.34-15.89,58.2-28.3s21.16-28,8.18-40.06c11,11.24,10.79,25.65-9.18,38-21.35,13.18-45.78,14.89-57.2,30.37Z" transform="translate(-207.89 -114.03)" fill-rule="evenodd" fill="url(#radial-gradient-6)"/>
    <path id="Pfad_7" data-name="Pfad 7" d="M239.88,162.6c21.05-9.84,72.41,0,82.77-14.76,11.79-21.82-14.55-37.65-40.5-33-25.06,4.49-39.74,24.87-42.27,47.75Z" transform="translate(-207.89 -114.03)" stroke="rgba(102,51,153,0.5)" stroke-width="1" fill-rule="evenodd" fill="url(#radial-gradient-7)"/>
    <path id="Pfad_8" data-name="Pfad 8" d="M271.56,229.27c-20.12-24,15-51.17,31.42-62.07,10.1-6.7,16.37-13.27,19.67-19.36-10.36,14.71-61.72,4.92-82.77,14.76-24.46,11.4-19.62,46.71,31.68,66.67Z" transform="translate(-207.89 -114.03)" stroke="rgba(102,51,153,0.5)" stroke-width="1" fill-rule="evenodd" fill="url(#radial-gradient-8)"/>
    <path id="Pfad_9" data-name="Pfad 9" d="M239.81,162.6c-24.46,11.4-19.62,46.71,31.68,66.67-11.1-9.19-20.94-20-26.69-33.32a66.3,66.3,0,0,1-5-33.35Z" transform="translate(-207.89 -114.03)" fill-rule="evenodd" fill="url(#radial-gradient-9)"/>
    <path id="Pfad_10" data-name="Pfad 10" d="M290.08,176.68c-16.39,13.36-34.16,33.93-18.52,52.59,11.58,9.58,24.52,17.36,35.6,24.2-12.51-14.53-33.47-53.34-17.08-76.79Z" transform="translate(-207.89 -114.03)" stroke="rgba(102,51,153,0.5)" stroke-width="1" fill-rule="evenodd" fill="url(#radial-gradient-10)"/>
    <path id="Pfad_11" data-name="Pfad 11" d="M239.88,162.6c21.05-9.84,72.41,0,82.77-14.76-11.56,12.5-56.68-1.61-80.25,2.75a62.673,62.673,0,0,0-2.52,12Z" transform="translate(-207.89 -114.03)" fill-rule="evenodd" fill="url(#radial-gradient-11)"/>
    <path id="Pfad_12" data-name="Pfad 12" d="M229.84,198.23c-6.54-13.41-2.27-26.34,10.47-32.85,19.59-10,65.62-1.28,80.07-15.16-14.1,11.23-60.71,3.13-80.5,12.38-14,6.5-18.39,20.83-10,35.63Z" transform="translate(-207.89 -114.03)" fill-rule="evenodd" fill="url(#radial-gradient-12)"/>
    <path id="Pfad_13" data-name="Pfad 13" d="M246,154.41c16.33-32.54,60.21-37.22,73.28-12.28,4.08-10.38-3.37-17.68-12.6-21.28a45,45,0,0,0-23.84-2c-19.36,3.46-32.32,17.59-36.84,35.6Z" transform="translate(-207.89 -114.03)" fill-rule="evenodd" fill="url(#radial-gradient-13)"/>
    <path id="Pfad_14" data-name="Pfad 14" d="M264.29,259.13a4.174,4.174,0,0,0,.07-.71,3.24,3.24,0,0,0-1.67-2.86,8,8,0,0,0-4.21-1.05,10.75,10.75,0,0,0-3.5.58,35,35,0,0,0-8.26,4.42,135.617,135.617,0,0,0-18.63,15.87A103.49,103.49,0,0,0,210.2,299a18.16,18.16,0,0,0-2.17,5.41,7.189,7.189,0,0,0-.14,1.15c0,1.5.78,2.42,2.52,3.06a10.56,10.56,0,0,0,3.64.65,14.481,14.481,0,0,0,3.19-.38,41.271,41.271,0,0,0,9.72-3.84c9.59-4.76,18.67-10.43,27.78-16.08a6.243,6.243,0,0,0,.61-.47c.24-.17.34-.31.34-.45a.752.752,0,0,0-.44-.51,3.43,3.43,0,0,0-1.39-.34,2.319,2.319,0,0,0-.82.14,20.838,20.838,0,0,0-3.37,1.36c-8.43,4.32-16.82,8.67-25.26,13a60.218,60.218,0,0,1-9.72,4.32,1.859,1.859,0,0,1-.61.14c-.17,0-.24-.07-.24-.28a2.62,2.62,0,0,1,.1-.57,18.51,18.51,0,0,1,1.77-4.56,86.671,86.671,0,0,1,13-19,131.109,131.109,0,0,1,23-20.67,34,34,0,0,1,6.87-3.8,1.2,1.2,0,0,1,.41-.11c.34,0,.47.24.61.65a4.581,4.581,0,0,1,.17,1.16,8,8,0,0,1-.37,2.17,55.758,55.758,0,0,1-4,9.66,20.5,20.5,0,0,0-1.64,3.94,3.571,3.571,0,0,0-.13,1,2.36,2.36,0,0,0,.44,1.46c.31.48.78.48,1.26.48.2,0,.47,0,.47-.31.11-1.66,1.09-2.92,1.87-4.28,1.84-3.23,3.64-6.46,5.17-9.83a15.77,15.77,0,0,0,1.45-4.14Zm65,22.88a.661.661,0,0,0-.24,0,.58.58,0,0,0-.24,0,3.742,3.742,0,0,1-.85.11,4.4,4.4,0,0,1-2.17-.62,3.44,3.44,0,0,0-1.77-.51,3.72,3.72,0,0,0-2,.65c-.41.24-.82.51-1.43.88.37-.64.61-1.12.85-1.56a2,2,0,0,0,.31-.92c0-.44-.28-.81-.86-1.22a2.88,2.88,0,0,0-1.56-.68,1.56,1.56,0,0,0-1.09.51,17.29,17.29,0,0,0-2,2.41c-.51.73-1,1.47-1.5,2.21a9.49,9.49,0,0,0-1.77.71c-3.94,2.11-7.89,4.25-11.86,6.36a40.159,40.159,0,0,1-6.87,3.16,2.8,2.8,0,0,1-.61.14c-.31,0-.38-.24-.41-.88v-.24a12.09,12.09,0,0,1,1.36-4.93,6,6,0,0,0,3.5,1.46,4.27,4.27,0,0,0,3.2-1.87,16.469,16.469,0,0,0,3.26-6.66,4.119,4.119,0,0,0,.1-.92,3.27,3.27,0,0,0-1.53-2.75,5,5,0,0,0-2.89-1,4.75,4.75,0,0,0-3,1.19,16.579,16.579,0,0,0-3.3,3.6,31.12,31.12,0,0,0-4.27,8.1v-.08a1.29,1.29,0,0,0-1.09-.71,1.84,1.84,0,0,0-.78.2,49.6,49.6,0,0,1-9.18,3.61,5.825,5.825,0,0,1-.61.13c-.17,0-.24-.07-.24-.27a2.58,2.58,0,0,1,.1-.61,43.258,43.258,0,0,1,1.09-4.46,8.769,8.769,0,0,0,.34-2.07v-.17a3.14,3.14,0,0,0-1.7-2.65,1.69,1.69,0,0,0-1-.31,2.72,2.72,0,0,0-1.5.55c-.57.37-1.15.71-1.73,1.08l-6.29,4.19c2.18-3.71,4.35-7.38,6.56-11,3.1-5.24,6.5-10.27,9.52-15.54a1.749,1.749,0,0,0,.27-.81c0-.45-.27-.82-.88-1.26a2,2,0,0,0-1.12-.51,1.33,1.33,0,0,0-.95.54,16.312,16.312,0,0,0-1.6,1.94c-5.78,8-11.15,16.35-16.18,24.85a57.229,57.229,0,0,0-4,7.48,3.46,3.46,0,0,0-.27,1.22c0,.89.55,1.7,1.8,2.55a2.46,2.46,0,0,0,1.26.55c.55,0,1-.41,1.84-1.26l.2-.2a72,72,0,0,1,10-9c.71-.51,1.42-1,2.14-1.49a.72.72,0,0,1,0,.23,2,2,0,0,1-.17.72,17.431,17.431,0,0,0-.85,4v.27a4.46,4.46,0,0,0,4.22,4.28,4.3,4.3,0,0,0,1.43-.27,46.892,46.892,0,0,0,9.19-4.78l-.15.56a6.113,6.113,0,0,0-.17,1.3,4.22,4.22,0,0,0,1.57,3.29,7.11,7.11,0,0,0,4.65,1.77,4.286,4.286,0,0,0,.62,0,12.15,12.15,0,0,0,4.65-1.6,122.855,122.855,0,0,0,11.58-7.19,31.16,31.16,0,0,0-1.58,3.48,4,4,0,0,0-.27,1.33c0,1.05.68,1.8,2,2.31a2.529,2.529,0,0,0,.62.14,1.28,1.28,0,0,0,1.05-.65,46.6,46.6,0,0,1,5.13-6.59,23.28,23.28,0,0,1,4.76-4.22,3,3,0,0,1,1.6-.54,2.631,2.631,0,0,1,1.16.3,3.71,3.71,0,0,0,1.7.44,2.681,2.681,0,0,0,1.12-.23c.3-.14.81-.17.81-.58h0a1.135,1.135,0,0,0-.98-1Zm-33.18,2.79a20.4,20.4,0,0,1,5.06-6.39.308.308,0,0,0,.2-.07.889.889,0,0,1,.07.34,3.533,3.533,0,0,1-.1.55,14.78,14.78,0,0,1-3.87,6.56c-.17.17-.34.44-.55.44a.32.32,0,0,1-.2-.1c-.24-.28-.68-.65-.68-1.06a.68.68,0,0,1,.12-.27Zm43.65-8a1.59,1.59,0,0,0,.78-.17,21.38,21.38,0,0,1,5.71-2.42c.31-.06.41-.17.41-.34a.74.74,0,0,0-.17-.37,2.3,2.3,0,0,0-1.9-1,1.5,1.5,0,0,0-.44,0,3.448,3.448,0,0,0-.85.07,13.41,13.41,0,0,0-5.24,1.66c-.3.17-.68.38-.68.82a.709.709,0,0,0,0,.27,2.57,2.57,0,0,0,2.43,1.46Zm21,6.25a1.15,1.15,0,0,0-.17.65,1.23,1.23,0,0,0,.51,1,2.33,2.33,0,0,0,1.36.79,1,1,0,0,0,.51-.17,13.76,13.76,0,0,0,4.55-3.81,2.35,2.35,0,0,0-.06-2.92,5.73,5.73,0,0,0-4.49-2.42h-.34a13.76,13.76,0,0,0-10.3,5.65,3.13,3.13,0,0,0-.51.92l-.48.06a14.091,14.091,0,0,0-3.06,1.26c-3.4,1.83-6.8,3.74-10.23,5.57-.34.21-.68.38-1.16.62.14-.48.17-.79.27-1.09.65-2,1.3-4.05,1.94-6.09a3.629,3.629,0,0,0,.24-1.22c0-.78-.44-1.22-1.5-1.8a2.63,2.63,0,0,0-1.12-.38c-.47,0-.81.28-1.26.92A20.75,20.75,0,0,0,332,290a2.19,2.19,0,0,0,0,.51,4.47,4.47,0,0,0,4.46,4.21,4.3,4.3,0,0,0,1.43-.27,19.722,19.722,0,0,0,3.7-2.11c3.53-2.47,6.94-5.08,10.54-7.48a4.582,4.582,0,0,0,.61.92,10.6,10.6,0,0,0,5.44,3c.51.14,1.29.07,1.4.55v.17c0,.51-.58.92-1,1.26a9.736,9.736,0,0,1-.85.68c-1.22.85-2.41,1.7-3.64,2.55a27.829,27.829,0,0,0-2.58,2,1,1,0,0,0-.38.68,1.13,1.13,0,0,0,.34.68,2.19,2.19,0,0,0,1.6.88,2.57,2.57,0,0,0,1.13-.34c2-1.05,3.9-2.18,5.77-3.37a10,10,0,0,0,2.52-2.14,2.65,2.65,0,0,0,.58-1.63,2.54,2.54,0,0,0-.55-1.56,5.93,5.93,0,0,0-1.22-1.23,15.63,15.63,0,0,0-4.45-2c-.55-.17-.82-.34-.82-.58a1.71,1.71,0,0,1,.37-.75,13.8,13.8,0,0,1,6.5-4.63.841.841,0,0,0,.13.17c-.51.58-1,1.15-1.49,1.77a11.53,11.53,0,0,0-.75,1.06Zm36,5.61a1.29,1.29,0,0,0-1.09-.71,1.84,1.84,0,0,0-.78.2,49.88,49.88,0,0,1-9.18,3.61,5.824,5.824,0,0,1-.61.13c-.17,0-.24-.07-.24-.27a2.58,2.58,0,0,1,.1-.61,38.651,38.651,0,0,1,1.09-4.46,8.769,8.769,0,0,0,.34-2.07v-.17a3.14,3.14,0,0,0-1.7-2.65,1.69,1.69,0,0,0-1-.31,2.72,2.72,0,0,0-1.5.55l-1.68,1.1-6.29,4.19q3.255-5.565,6.56-11c3.09-5.24,6.49-10.27,9.52-15.54a1.75,1.75,0,0,0,.27-.81c0-.45-.27-.82-.88-1.26a2,2,0,0,0-1.12-.51,1.35,1.35,0,0,0-1,.54,17.244,17.244,0,0,0-1.59,1.94c-5.78,8-11.16,16.35-16.19,24.85a58.393,58.393,0,0,0-4,7.48,3.461,3.461,0,0,0-.27,1.22c0,.89.54,1.7,1.8,2.55a2.46,2.46,0,0,0,1.26.55c.54,0,1-.41,1.84-1.26l.2-.2a71.9,71.9,0,0,1,10-9c.72-.51,1.43-1,2.15-1.49a.721.721,0,0,1,0,.23,2,2,0,0,1-.17.72,17.43,17.43,0,0,0-.85,4v.27a4.46,4.46,0,0,0,4.22,4.28,4.2,4.2,0,0,0,1.42-.27,47,47,0,0,0,9.28-4.83.49.49,0,0,0,.28-.44.73.73,0,0,0-.12-.57Z" transform="translate(-207.89 -114.03)" stroke="rgba(102,51,153,0.5)" stroke-width="1" fill="url(#linear-gradient)"/>
  </g>
</svg>
