<svg xmlns="http://www.w3.org/2000/svg" xmlns:xlink="http://www.w3.org/1999/xlink" viewBox="0 0 189.1 195.25"><defs><radialGradient id="Unbenannter_Verlauf_326" cx="329" cy="301.96" r="133" gradientUnits="userSpaceOnUse"><stop offset="0" stop-color="#fff"/><stop offset="0.5" stop-color="#76c39b"/><stop offset="1" stop-color="#00807b"/></radialGradient><radialGradient id="Unbenannter_Verlauf_326-2" cx="443.67" cy="226.96" r="161.79" xlink:href="#Unbenannter_Verlauf_326"/><radialGradient id="Unbenannter_Verlauf_326-3" cx="436.33" cy="208.62" r="168.2" xlink:href="#Unbenannter_Verlauf_326"/><radialGradient id="Unbenannter_Verlauf_326-4" cx="343.33" cy="83.96" r="107.02" xlink:href="#Unbenannter_Verlauf_326"/><radialGradient id="Unbenannter_Verlauf_326-5" cx="319.67" cy="283.29" r="101" xlink:href="#Unbenannter_Verlauf_326"/><radialGradient id="Unbenannter_Verlauf_326-6" cx="351.9" cy="183.6" r="86.45" xlink:href="#Unbenannter_Verlauf_326"/><radialGradient id="Unbenannter_Verlauf_134" cx="319.33" cy="86.96" r="114.4" gradientUnits="userSpaceOnUse"><stop offset="0" stop-color="#fff"/><stop offset="0.5" stop-color="#fbd8b4"/><stop offset="1" stop-color="#ec9641"/></radialGradient><radialGradient id="Unbenannter_Verlauf_134-2" cx="158.67" cy="118.62" r="234.32" xlink:href="#Unbenannter_Verlauf_134"/><radialGradient id="Unbenannter_Verlauf_147" cx="203.26" cy="167.29" r="143.11" xlink:href="#Unbenannter_Verlauf_134"/><radialGradient id="Unbenannter_Verlauf_321" cx="291" cy="295.96" r="113.37" xlink:href="#Unbenannter_Verlauf_134"/><radialGradient id="Unbenannter_Verlauf_134-3" cx="414" cy="174.96" r="182.01" xlink:href="#Unbenannter_Verlauf_134"/><radialGradient id="Unbenannter_Verlauf_157" cx="265.33" cy="172.29" r="91.67" xlink:href="#Unbenannter_Verlauf_134"/><radialGradient id="New_Gradient_Swatch_3" cx="244.93" cy="136.24" r="64.48" gradientUnits="userSpaceOnUse"><stop offset="0" stop-color="#fff"/><stop offset="1" stop-color="#fff" stop-opacity="0"/></radialGradient><linearGradient id="Unbenannter_Verlauf_311" x1="207.89" y1="281.89" x2="397" y2="281.89" gradientUnits="userSpaceOnUse"><stop offset="0" stop-color="#fbd8b4"/><stop offset="0.4" stop-color="#c0cfa9"/><stop offset="0.8" stop-color="#8bc6a0"/><stop offset="1" stop-color="#76c39c"/></linearGradient></defs><title>CherishLogoSVG</title><g id="Layer_1" data-name="Layer 1"><path d="M312.62,249.54c-1.36-22.17,44.62-32.23,59.72-60.06-22.68,12.87-46.66,13.19-59.68,30.08-5.73,10.17-7.22,20.28,0,30Z" transform="translate(-207.89 -114.03)" fill-rule="evenodd" fill="url(#Unbenannter_Verlauf_326)"/><path d="M312.66,219.56c13-16.89,37-17.21,59.68-30.08,30.85-17.5,16.76-41.39-13.22-52.55,15.32,13.66.07,30.71-17.69,48.91-10.73,11-22.38,22.39-28.77,33.72Z" transform="translate(-207.89 -114.03)" fill-rule="evenodd" fill="url(#Unbenannter_Verlauf_326-2)"/><path d="M372.34,189.48c30.85-17.5,16.76-41.39-13.22-52.55,9.22,5.3,15.38,15.08,17.27,26.07,1.81,10.44,0,19.1-4.05,26.48Z" transform="translate(-207.89 -114.03)" fill-rule="evenodd" fill="url(#Unbenannter_Verlauf_326-3)"/><path d="M341.43,185.84c17.76-18.2,33-35.25,17.69-48.91-7.76-4.46-17.69-5.75-29.07-2,25.67,4.72,26.37,28.75,11.38,50.88Z" transform="translate(-207.89 -114.03)" fill-rule="evenodd" fill="url(#Unbenannter_Verlauf_326-4)"/><path d="M312.66,219.56c12.44-12.44,30.81-12.75,50.42-18a52.7,52.7,0,0,0,9.26-12.09c-22.68,12.87-46.66,13.19-59.68,30.08Z" transform="translate(-207.89 -114.03)" fill-rule="evenodd" fill="url(#Unbenannter_Verlauf_326-5)"/><path d="M314.14,217.78c13.29-15.16,36.34-15.89,58.2-28.3s21.16-28,8.18-40.06c11,11.24,10.79,25.65-9.18,38-21.35,13.18-45.78,14.89-57.2,30.37Z" transform="translate(-207.89 -114.03)" fill-rule="evenodd" fill="url(#Unbenannter_Verlauf_326-6)"/><path d="M239.88,162.6c21.05-9.84,72.41,0,82.77-14.76,11.79-21.82-14.55-37.65-40.5-33-25.06,4.49-39.74,24.87-42.27,47.75Z" transform="translate(-207.89 -114.03)" fill-rule="evenodd" fill="url(#Unbenannter_Verlauf_134)"/><path d="M271.56,229.27c-20.12-24,15-51.17,31.42-62.07,10.1-6.7,16.37-13.27,19.67-19.36-10.36,14.71-61.72,4.92-82.77,14.76-24.46,11.4-19.62,46.71,31.68,66.67Z" transform="translate(-207.89 -114.03)" fill-rule="evenodd" fill="url(#Unbenannter_Verlauf_134-2)"/><path d="M239.81,162.6c-24.46,11.4-19.62,46.71,31.68,66.67-11.1-9.19-20.94-20-26.69-33.32a66.3,66.3,0,0,1-5-33.35Z" transform="translate(-207.89 -114.03)" fill-rule="evenodd" fill="url(#Unbenannter_Verlauf_147)"/><path d="M290.08,176.68c-16.39,13.36-34.16,33.93-18.52,52.59,11.58,9.58,24.52,17.36,35.6,24.2-12.51-14.53-33.47-53.34-17.08-76.79Z" transform="translate(-207.89 -114.03)" fill-rule="evenodd" fill="url(#Unbenannter_Verlauf_321)"/><path d="M239.88,162.6c21.05-9.84,72.41,0,82.77-14.76-11.56,12.5-56.68-1.61-80.25,2.75a62.67,62.67,0,0,0-2.52,12Z" transform="translate(-207.89 -114.03)" fill-rule="evenodd" fill="url(#Unbenannter_Verlauf_134-3)"/><path d="M229.84,198.23c-6.54-13.41-2.27-26.34,10.47-32.85,19.59-10,65.62-1.28,80.07-15.16-14.1,11.23-60.71,3.13-80.5,12.38-14,6.5-18.39,20.83-10,35.63Z" transform="translate(-207.89 -114.03)" fill-rule="evenodd" fill="url(#Unbenannter_Verlauf_157)"/><path d="M246,154.41c16.33-32.54,60.21-37.22,73.28-12.28,4.08-10.38-3.37-17.68-12.6-21.28a45,45,0,0,0-23.84-2c-19.36,3.46-32.32,17.59-36.84,35.6Z" transform="translate(-207.89 -114.03)" fill-rule="evenodd" fill="url(#New_Gradient_Swatch_3)"/><path d="M264.29,259.13a4.17,4.17,0,0,0,.07-.71,3.24,3.24,0,0,0-1.67-2.86,8,8,0,0,0-4.21-1.05,10.75,10.75,0,0,0-3.5.58,35,35,0,0,0-8.26,4.42,135.62,135.62,0,0,0-18.63,15.87A103.49,103.49,0,0,0,210.2,299a18.16,18.16,0,0,0-2.17,5.41,7.19,7.19,0,0,0-.14,1.15c0,1.5.78,2.42,2.52,3.06a10.56,10.56,0,0,0,3.64.65,14.48,14.48,0,0,0,3.19-.38,41.27,41.27,0,0,0,9.72-3.84c9.59-4.76,18.67-10.43,27.78-16.08a6.24,6.24,0,0,0,.61-.47c.24-.17.34-.31.34-.45s-.17-.37-.44-.51a3.43,3.43,0,0,0-1.39-.34,2.32,2.32,0,0,0-.82.14,20.84,20.84,0,0,0-3.37,1.36c-8.43,4.32-16.82,8.67-25.26,13a60.22,60.22,0,0,1-9.72,4.32,1.86,1.86,0,0,1-.61.14c-.17,0-.24-.07-.24-.28a2.62,2.62,0,0,1,.1-.57,18.51,18.51,0,0,1,1.77-4.56,86.67,86.67,0,0,1,13-19,131.11,131.11,0,0,1,23-20.67,34,34,0,0,1,6.87-3.8,1.2,1.2,0,0,1,.41-.11c.34,0,.47.24.61.65a4.58,4.58,0,0,1,.17,1.16,8,8,0,0,1-.37,2.17,55.76,55.76,0,0,1-4,9.66,20.5,20.5,0,0,0-1.64,3.94,3.57,3.57,0,0,0-.13,1,2.36,2.36,0,0,0,.44,1.46c.31.48.78.48,1.26.48.2,0,.47,0,.47-.31.11-1.66,1.09-2.92,1.87-4.28,1.84-3.23,3.64-6.46,5.17-9.83A15.77,15.77,0,0,0,264.29,259.13Zm65,22.88a.66.66,0,0,0-.24,0,.58.58,0,0,0-.24,0,3.74,3.74,0,0,1-.85.11,4.4,4.4,0,0,1-2.17-.62,3.44,3.44,0,0,0-1.77-.51,3.72,3.72,0,0,0-2,.65c-.41.24-.82.51-1.43.88.37-.64.61-1.12.85-1.56a2,2,0,0,0,.31-.92c0-.44-.28-.81-.86-1.22a2.88,2.88,0,0,0-1.56-.68,1.56,1.56,0,0,0-1.09.51,17.29,17.29,0,0,0-2,2.41c-.51.73-1,1.47-1.5,2.21a9.49,9.49,0,0,0-1.77.71c-3.94,2.11-7.89,4.25-11.86,6.36a40.16,40.16,0,0,1-6.87,3.16,2.8,2.8,0,0,1-.61.14c-.31,0-.38-.24-.41-.88v-.24a12.09,12.09,0,0,1,1.36-4.93,6,6,0,0,0,3.5,1.46,4.27,4.27,0,0,0,3.2-1.87,16.47,16.47,0,0,0,3.26-6.66,4.12,4.12,0,0,0,.1-.92,3.27,3.27,0,0,0-1.53-2.75,5,5,0,0,0-2.89-1,4.75,4.75,0,0,0-3,1.19,16.58,16.58,0,0,0-3.3,3.6,31.12,31.12,0,0,0-4.27,8.1l0-.08a1.29,1.29,0,0,0-1.09-.71,1.84,1.84,0,0,0-.78.2,49.6,49.6,0,0,1-9.18,3.61,5.82,5.82,0,0,1-.61.13c-.17,0-.24-.07-.24-.27a2.58,2.58,0,0,1,.1-.61,43.26,43.26,0,0,1,1.09-4.46,8.77,8.77,0,0,0,.34-2.07v-.17a3.14,3.14,0,0,0-1.7-2.65,1.69,1.69,0,0,0-1-.31,2.72,2.72,0,0,0-1.5.55c-.57.37-1.15.71-1.73,1.08l-6.29,4.19c2.18-3.71,4.35-7.38,6.56-11,3.1-5.24,6.5-10.27,9.52-15.54a1.75,1.75,0,0,0,.27-.81c0-.45-.27-.82-.88-1.26a2,2,0,0,0-1.12-.51,1.33,1.33,0,0,0-.95.54,16.31,16.31,0,0,0-1.6,1.94c-5.78,8-11.15,16.35-16.18,24.85a57.23,57.23,0,0,0-4,7.48,3.46,3.46,0,0,0-.27,1.22c0,.89.55,1.7,1.8,2.55a2.46,2.46,0,0,0,1.26.55c.55,0,1-.41,1.84-1.26l.2-.2a72,72,0,0,1,10-9c.71-.51,1.42-1,2.14-1.49a.72.72,0,0,1,0,.23,2,2,0,0,1-.17.72,17.43,17.43,0,0,0-.85,4v.27a4.46,4.46,0,0,0,4.22,4.28,4.3,4.3,0,0,0,1.43-.27,46.89,46.89,0,0,0,9.19-4.78l-.15.56a6.11,6.11,0,0,0-.17,1.3,4.22,4.22,0,0,0,1.57,3.29,7.11,7.11,0,0,0,4.65,1.77,4.29,4.29,0,0,0,.62,0,12.15,12.15,0,0,0,4.65-1.6,122.85,122.85,0,0,0,11.58-7.19,31.16,31.16,0,0,0-1.58,3.48,4,4,0,0,0-.27,1.33c0,1.05.68,1.8,2,2.31a2.53,2.53,0,0,0,.62.14,1.28,1.28,0,0,0,1.05-.65,46.6,46.6,0,0,1,5.13-6.59,23.28,23.28,0,0,1,4.76-4.22,3,3,0,0,1,1.6-.54,2.63,2.63,0,0,1,1.16.3,3.71,3.71,0,0,0,1.7.44,2.68,2.68,0,0,0,1.12-.23c.3-.14.81-.17.81-.58v0C330.26,282.35,329.78,282.12,329.34,282Zm-33.18,2.79a20.4,20.4,0,0,1,5.06-6.39s.14,0,.2-.07a.89.89,0,0,1,.07.34,3.53,3.53,0,0,1-.1.55,14.78,14.78,0,0,1-3.87,6.56c-.17.17-.34.44-.55.44a.32.32,0,0,1-.2-.1c-.24-.28-.68-.65-.68-1.06A.68.68,0,0,1,296.16,284.8Zm43.65-8a1.59,1.59,0,0,0,.78-.17,21.38,21.38,0,0,1,5.71-2.42c.31-.06.41-.17.41-.34a.74.74,0,0,0-.17-.37,2.3,2.3,0,0,0-1.9-1,1.5,1.5,0,0,0-.44,0c-.28,0-.58,0-.85.07a13.41,13.41,0,0,0-5.24,1.66c-.3.17-.68.38-.68.82a.71.71,0,0,0,0,.27A2.57,2.57,0,0,0,339.81,276.78Zm21,6.25a1.15,1.15,0,0,0-.17.65,1.23,1.23,0,0,0,.51,1,2.33,2.33,0,0,0,1.36.79,1,1,0,0,0,.51-.17,13.76,13.76,0,0,0,4.55-3.81,2.35,2.35,0,0,0-.06-2.92,5.73,5.73,0,0,0-4.49-2.42h-.34a13.76,13.76,0,0,0-10.3,5.65,3.13,3.13,0,0,0-.51.92l-.48.06a14.09,14.09,0,0,0-3.06,1.26c-3.4,1.83-6.8,3.74-10.23,5.57-.34.21-.68.38-1.16.62.14-.48.17-.79.27-1.09.65-2,1.3-4.05,1.94-6.09a3.63,3.63,0,0,0,.24-1.22c0-.78-.44-1.22-1.5-1.8a2.63,2.63,0,0,0-1.12-.38c-.47,0-.81.28-1.26.92A20.75,20.75,0,0,0,332,290a2.19,2.19,0,0,0,0,.51,4.47,4.47,0,0,0,4.46,4.21,4.3,4.3,0,0,0,1.43-.27,19.72,19.72,0,0,0,3.7-2.11c3.53-2.47,6.94-5.08,10.54-7.48a4.58,4.58,0,0,0,.61.92,10.6,10.6,0,0,0,5.44,3c.51.14,1.29.07,1.4.55,0,.07,0,.1,0,.17,0,.51-.58.92-1,1.26a9.73,9.73,0,0,1-.85.68c-1.22.85-2.41,1.7-3.64,2.55a27.83,27.83,0,0,0-2.58,2,1,1,0,0,0-.38.68,1.13,1.13,0,0,0,.34.68,2.19,2.19,0,0,0,1.6.88,2.57,2.57,0,0,0,1.13-.34c2-1.05,3.9-2.18,5.77-3.37a10,10,0,0,0,2.52-2.14,2.65,2.65,0,0,0,.58-1.63,2.54,2.54,0,0,0-.55-1.56,5.93,5.93,0,0,0-1.22-1.23,15.63,15.63,0,0,0-4.45-2c-.55-.17-.82-.34-.82-.58a1.71,1.71,0,0,1,.37-.75A13.8,13.8,0,0,1,362.9,280a.84.84,0,0,0,.13.17c-.51.58-1,1.15-1.49,1.77A11.54,11.54,0,0,0,360.79,283Zm36,5.61a1.29,1.29,0,0,0-1.09-.71,1.84,1.84,0,0,0-.78.2,49.88,49.88,0,0,1-9.18,3.61,5.82,5.82,0,0,1-.61.13c-.17,0-.24-.07-.24-.27a2.58,2.58,0,0,1,.1-.61,38.65,38.65,0,0,1,1.09-4.46,8.77,8.77,0,0,0,.34-2.07v-.17a3.14,3.14,0,0,0-1.7-2.65,1.69,1.69,0,0,0-1-.31,2.72,2.72,0,0,0-1.5.55L380.51,283l-6.29,4.19c2.17-3.71,4.35-7.38,6.56-11,3.09-5.24,6.49-10.27,9.52-15.54a1.75,1.75,0,0,0,.27-.81c0-.45-.27-.82-.88-1.26a2,2,0,0,0-1.12-.51,1.35,1.35,0,0,0-1,.54,17.25,17.25,0,0,0-1.59,1.94c-5.78,8-11.16,16.35-16.19,24.85a58.39,58.39,0,0,0-4,7.48,3.46,3.46,0,0,0-.27,1.22c0,.89.54,1.7,1.8,2.55a2.46,2.46,0,0,0,1.26.55c.54,0,1-.41,1.84-1.26l.2-.2a71.9,71.9,0,0,1,10-9c.72-.51,1.43-1,2.15-1.49a.72.72,0,0,1,0,.23,2,2,0,0,1-.17.72,17.43,17.43,0,0,0-.85,4v.27a4.46,4.46,0,0,0,4.22,4.28,4.2,4.2,0,0,0,1.42-.27,47,47,0,0,0,9.28-4.83.49.49,0,0,0,.28-.44A.73.73,0,0,0,396.83,288.64Z" transform="translate(-207.89 -114.03)" fill="url(#Unbenannter_Verlauf_311)"/></g></svg>