<svg id="Ebene_1" data-name="Ebene 1" xmlns="http://www.w3.org/2000/svg" viewBox="0 0 37.13 48"><title>goals</title><path d="M309.28,420.48H296.47a1,1,0,0,1,0-1.92h12.81a1,1,0,0,1,0,1.92Z" transform="translate(-279.43 -396.5)" fill="#576074"/><path d="M288.38,406.84a1,1,0,0,1-.95-1v-8.42a1,1,0,1,1,1.92,0v8.42A1,1,0,0,1,288.38,406.84Z" transform="translate(-279.43 -396.5)" fill="#576074"/><path d="M297.94,406.84a1,1,0,0,1-1-1v-8.42a1,1,0,0,1,1.92,0v8.42A1,1,0,0,1,297.94,406.84Z" transform="translate(-279.43 -396.5)" fill="#576074"/><path d="M288.38,410.62a3.28,3.28,0,1,1,3.29-3.27A3.28,3.28,0,0,1,288.38,410.62Zm0-4.63a1.36,1.36,0,1,0,1.37,1.36A1.36,1.36,0,0,0,288.38,406Z" transform="translate(-279.43 -396.5)" fill="#576074"/><path d="M307.68,406.84a1,1,0,0,1-1-1v-8.42a1,1,0,0,1,1.92,0v8.42A1,1,0,0,1,307.68,406.84Z" transform="translate(-279.43 -396.5)" fill="#576074"/><path d="M307.68,410.62a3.28,3.28,0,1,1,3.29-3.27A3.29,3.29,0,0,1,307.68,410.62Zm0-4.63a1.36,1.36,0,1,0,1.37,1.36A1.36,1.36,0,0,0,307.68,406Z" transform="translate(-279.43 -396.5)" fill="#576074"/><path d="M297.93,410.62a3.28,3.28,0,1,1,3.29-3.27A3.29,3.29,0,0,1,297.93,410.62Zm0-4.63a1.36,1.36,0,1,0,1.37,1.36A1.36,1.36,0,0,0,297.93,406Z" transform="translate(-279.43 -396.5)" fill="#576074"/><path d="M315.61,444.5H280.39a1,1,0,0,1-1-1V400.33a1,1,0,0,1,1-1h35.22a1,1,0,0,1,1,1v43.21A1,1,0,0,1,315.61,444.5Zm-34.26-1.92h33.3v-41.3h-33.3Z" transform="translate(-279.43 -396.5)" fill="#576074"/><path d="M290.19,422.17h-3.36a1,1,0,0,1-.95-1v-3.38a1,1,0,0,1,.95-1h3.36a1,1,0,0,1,1,1v3.38A1,1,0,0,1,290.19,422.17Zm-2.4-1.92h1.44v-1.46h-1.44Z" transform="translate(-279.43 -396.5)" fill="#576074"/><path d="M309.28,428.48H296.47a1,1,0,0,1,0-1.92h12.81a1,1,0,0,1,0,1.92Z" transform="translate(-279.43 -396.5)" fill="#576074"/><path d="M290.19,430.17h-3.36a1,1,0,0,1-.95-1v-3.38a1,1,0,0,1,.95-1h3.36a1,1,0,0,1,1,1v3.38A1,1,0,0,1,290.19,430.17Zm-2.4-1.92h1.44v-1.46h-1.44Z" transform="translate(-279.43 -396.5)" fill="#576074"/><path d="M309.28,436.48H296.47a1,1,0,0,1,0-1.92h12.81a1,1,0,0,1,0,1.92Z" transform="translate(-279.43 -396.5)" fill="#576074"/><path d="M290.19,438.17h-3.36a1,1,0,0,1-.95-.95v-3.39a1,1,0,0,1,.95-1h3.36a1,1,0,0,1,1,1v3.39A1,1,0,0,1,290.19,438.17Zm-2.4-1.92h1.44v-1.46h-1.44Z" transform="translate(-279.43 -396.5)" fill="#576074"/></svg>