<svg 
xmlns="http://www.w3.org/2000/svg" 
viewBox="0 0 46.06 48">
<title>1</title>
<path d="M319.11,412.31H276.89a1.16,1.16,0,1,1,0-2.31h42.22a1.16,1.16,0,1,1,0,2.31Z" transform="translate(-274.97 -396.5)" fill="#fff"/>
<path d="M316.83,444.5H279.17A4.35,4.35,0,0,1,275,440V405a4.35,4.35,0,0,1,4.2-4.49h2.93a1.16,1.16,0,0,1,0,2.31h-2.93a2.06,2.06,0,0,0-1.89,2.18v35a2.06,2.06,0,0,0,1.89,2.18h37.66a2.06,2.06,0,0,0,1.89-2.18V405a2.06,2.06,0,0,0-1.89-2.18H313.9a1.16,1.16,0,0,1,0-2.31h2.93A4.35,4.35,0,0,1,321,405v35A4.35,4.35,0,0,1,316.83,444.5Z" transform="translate(-274.97 -396.5)" fill="#fff"/>
<path d="M286.47,405.2a1.14,1.14,0,0,1-1.15-1.15v-6.39a1.16,1.16,0,1,1,2.31,0v6.39A1.15,1.15,0,0,1,286.47,405.2Z" transform="translate(-274.97 -396.5)" fill="#fff"/>
<path d="M294.16,405.2a1.15,1.15,0,0,1-1.16-1.15v-6.39a1.16,1.16,0,1,1,2.31,0v6.39A1.15,1.15,0,0,1,294.16,405.2Z" transform="translate(-274.97 -396.5)" fill="#fff"/>
<path d="M301.84,405.2a1.15,1.15,0,0,1-1.16-1.15v-6.39a1.16,1.16,0,0,1,2.32,0v6.39A1.15,1.15,0,0,1,301.84,405.2Z" transform="translate(-274.97 -396.5)" fill="#fff"/>
<path d="M309.53,405.2a1.15,1.15,0,0,1-1.16-1.15v-6.39a1.16,1.16,0,0,1,2.32,0v6.39A1.15,1.15,0,0,1,309.53,405.2Z" transform="translate(-274.97 -396.5)" fill="#fff"/>
<path d="M288.75,420.49h-.05l-3.29,1.77-.49-1.94,4.12-2.21h2.18V437h-2.47Z" transform="translate(-274.97 -396.5)" fill="#fff"/><path d="M306,437v-5.14h-8.77v-1.69l8.43-12.06h2.76v11.74h2.64v2h-2.64V437Zm0-7.15v-6.31c0-1,0-2,.09-3H306c-.58,1.1-1,1.92-1.56,2.79l-4.63,6.42v.06Z" transform="translate(-274.97 -396.5)" fill="#fff"/>
</svg>