<svg id="Ebene_1" data-name="Ebene 1" xmlns="http://www.w3.org/2000/svg" viewBox="0 0 48 38.97"><title>chart1</title><path d="M321.11,440h-45.5a.89.89,0,0,1,0-1.78h45.5a.89.89,0,0,1,0,1.78Z" transform="translate(-274 -401.02)" fill="#fff"/><path d="M274.89,440a.89.89,0,0,1-.89-.89V401.91a.9.9,0,0,1,1.79,0v37.18A.89.89,0,0,1,274.89,440Z" transform="translate(-274 -401.02)" fill="#fff"/><path d="M287.14,440a.89.89,0,0,1-.89-.89V423.35a.89.89,0,0,1,1.78,0v15.73A.89.89,0,0,1,287.14,440Z" transform="translate(-274 -401.02)" fill="#fff"/><path d="M279.92,440a.89.89,0,0,1-.89-.89V427.93a.89.89,0,1,1,1.78,0v11.15A.89.89,0,0,1,279.92,440Z" transform="translate(-274 -401.02)" fill="#fff"/><path d="M299.71,439.49a.89.89,0,0,1-.89-.89V421.55a.9.9,0,0,1,1.79,0V438.6A.89.89,0,0,1,299.71,439.49Z" transform="translate(-274 -401.02)" fill="#fff"/><path d="M292.49,439.93a.89.89,0,0,1-.89-.89V419.71a.89.89,0,0,1,1.78,0V439A.89.89,0,0,1,292.49,439.93Z" transform="translate(-274 -401.02)" fill="#fff"/><path d="M312.29,439.62a.89.89,0,0,1-.89-.89V412.91a.89.89,0,0,1,1.78,0v25.82A.89.89,0,0,1,312.29,439.62Z" transform="translate(-274 -401.02)" fill="#fff"/><path d="M305.07,439.62a.89.89,0,0,1-.9-.89V418.27a.9.9,0,0,1,1.79,0v20.46A.89.89,0,0,1,305.07,439.62Z" transform="translate(-274 -401.02)" fill="#fff"/><path d="M275.08,431.48a.89.89,0,0,1-.49-1.63l20.3-13.5a.9.9,0,0,1,.91-.05.91.91,0,0,1,.48.79v5.46l22-16.54a.89.89,0,0,1,1.08,1.42l-23.4,17.62a.87.87,0,0,1-.93.09.88.88,0,0,1-.5-.8v-5.58l-18.92,12.57A.81.81,0,0,1,275.08,431.48Z" transform="translate(-274 -401.02)" fill="#fff"/><path d="M312.36,406.94a.89.89,0,0,1-.06-1.78l7.1-.54a.89.89,0,0,1,.13,1.78l-7.1.54Z" transform="translate(-274 -401.02)" fill="#fff"/><path d="M318.39,413.72l-.17,0a.89.89,0,0,1-.71-1.05l1.37-7a.89.89,0,1,1,1.75.34l-1.37,7A.89.89,0,0,1,318.39,413.72Z" transform="translate(-274 -401.02)" fill="#fff"/></svg>